<?xml version="1.0" standalone="no"?><!DOCTYPE svg PUBLIC "-//W3C//DTD SVG 1.1//EN" "http://www.w3.org/Graphics/SVG/1.1/DTD/svg11.dtd"><svg t="1587351921553" class="icon" viewBox="0 0 1063 1024" version="1.1" xmlns="http://www.w3.org/2000/svg" p-id="8484" xmlns:xlink="http://www.w3.org/1999/xlink" width="33.21875" height="32"><defs><style type="text/css"></style></defs><path d="M864.554002 399.942265H266.121279a51.463453 51.463453 0 0 0-51.436774 51.436775v148.067479H68.591259A68.591259 68.591259 0 0 1 0 530.85526v-128.645295a68.591259 68.591259 0 0 1 68.591259-68.591259h727.398163a68.57792 68.57792 0 0 1 68.56458 66.323559z" fill="#F74B5C" p-id="8485"></path><path d="M214.684505 665.850114v265.761115H68.591259A68.56458 68.56458 0 0 1 0 863.033309v-128.605275a68.591259 68.591259 0 0 1 68.591259-68.591259h146.093246zM844.464847 21.316381A68.537901 68.537901 0 0 0 795.989422 1.227226H68.591259v0.080036A68.591259 68.591259 0 0 0 0 69.898521v128.618616a68.591259 68.591259 0 0 0 68.591259 68.56458h727.398163a68.591259 68.591259 0 0 0 68.56458-68.56458V69.805146a68.511223 68.511223 0 0 0-20.089155-48.488765zM152.869667 200.638103v-0.080036a66.443614 66.443614 0 1 1 0 0.080036zM873.358015 466.425897h102.873549v451.819241h86.94629v104.260848H924.741432c-28.466306 0-51.436775-25.905139-51.436775-57.959747zM543.901205 466.425897h298.442676v104.420921h-92.588862V1022.599362h-102.87355V570.766782h-102.886888v-104.167472l-0.093376-0.173413zM353.574468 466.425897h159.472676v104.420921h-144.065655v104.260848h144.065655v104.247509h-144.065655v127.404729h144.065655v115.826118H317.571393c-28.466306 0-51.53015-25.8918-51.53015-57.959747v-440.200612c0-32.01459 23.143881-57.866371 51.436774-57.866372h36.016414z" fill="#2194F7" p-id="8486"></path></svg>