<?xml version="1.0" encoding="UTF-8"?>
<svg width="137px" height="30px" viewBox="0 0 137 30" version="1.1" xmlns="http://www.w3.org/2000/svg" xmlns:xlink="http://www.w3.org/1999/xlink">
    <title>Fill 1</title>
    <g id="资产视图20220307" stroke="none" stroke-width="1" fill="none" fill-rule="evenodd">
        <g id="TOP栏" transform="translate(-78.000000, -18.000000)" fill="#FFFFFF">
            <path d="M130.101638,29.6452446 C132.263879,28.4541067 134.425582,27.1180498 136.677154,25.6327639 L135.67514,24.1119217 C133.788964,25.3170666 131.915704,26.4581023 130.101638,27.4876204 L130.101638,23.3038228 L128.065322,23.3038228 L128.065322,28.6108779 C126.592437,29.3915015 125.178208,30.0751532 123.853849,30.6241218 L124.6024,32.330288 C125.773928,31.8384251 126.922854,31.298615 128.065322,30.7216324 L128.065322,31.7748547 L128.065322,33.8231161 L128.065322,33.8328133 L130.101638,33.8328133 L130.101638,33.8231161 L138.01981,33.8231161 L138.01981,31.7748547 L130.101638,31.7748547 L130.101638,29.6452446 Z M138.000975,36.3977194 L128.363989,36.4634447 L128.353226,35.0255674 L126.317448,35.0411906 L126.327672,36.4779905 L116.720284,36.5431772 L116.718669,38.5903612 L126.34274,38.5240971 L126.380948,43.7255606 L128.417265,43.7196346 L128.379057,38.5106287 L138.015505,38.4449034 L138.000975,36.3977194 Z M104.368926,29.1453007 C104.130531,28.9071809 103.744147,28.9071809 103.505752,29.1453007 L100.087496,32.5678691 C99.8491002,32.8065276 99.8491002,33.1933377 100.087496,33.4314575 L103.505752,36.8545646 C103.744147,37.0926845 104.130531,37.0926845 104.368926,36.8545646 L107.787721,33.4314575 C108.025578,33.1933377 108.025578,32.8065276 107.787721,32.5678691 L104.368926,29.1453007 Z M146.397014,34.4286516 L146.398628,33.1329996 L159.70572,33.1513165 L159.704105,34.4469685 L146.397014,34.4286516 Z M146.403471,29.801477 L159.710563,29.8197939 L159.708949,31.1041325 L146.401857,31.0852769 L146.403471,29.801477 Z M154.082171,36.4860715 L161.756028,36.4973849 L161.759795,34.4496622 L161.748494,34.4496622 L161.750108,33.1540102 L161.756028,33.1540102 L161.759795,31.1068262 L161.753337,31.1068262 L161.754952,29.8224876 L161.756028,29.8224876 L161.759795,27.7758423 L161.75818,27.7758423 L161.75818,27.748367 L159.713254,27.7456733 L159.713254,27.7731487 L153.981539,27.7650677 L153.983692,26.1397113 L162.060614,26.1515634 L162.063305,24.1043794 L153.986383,24.0930661 L153.988535,22.513502 L151.944147,22.5108083 L151.936074,27.7618353 L146.4067,27.754293 L146.4067,27.7424409 L144.361774,27.7397472 L144.361774,27.7510606 L144.352087,27.7510606 L144.349396,29.7982446 L144.359083,29.7982446 L144.357468,31.0825832 L144.352087,31.0825832 L144.349396,33.1297672 L144.35424,33.1297672 L144.352625,34.4254192 L144.352087,34.4254192 L144.349396,36.4726032 L144.349934,36.4726032 L144.349934,36.4823004 L146.393785,36.4844553 L146.393785,36.4752969 L152.037783,36.4828391 L152.03563,37.8803116 L142.409945,37.8668433 L142.406716,39.914566 L152.031863,39.9280343 L152.026482,43.7767402 L154.071408,43.7799726 L154.077328,39.930728 L163.655119,39.9441963 L163.658886,37.8970123 L154.080019,37.883544 L154.082171,36.4860715 Z M168.067856,41.798514 L170.119778,41.798514 C171.040533,38.4917731 171.217581,34.2837325 171.241259,30.3763047 L169.427732,30.3763047 C169.331405,34.2837325 169.144671,39.0929987 168.067856,41.798514 L168.067856,41.798514 Z M199.240611,41.8222182 L199.240073,41.8222182 L199.213166,35.7485465 L201.618645,34.7761341 L200.852336,32.9439045 L199.203479,33.6103167 L199.18303,29.0537161 L202.009872,29.0424027 L202.000186,27.0550181 L199.173882,27.0668702 L199.15397,22.5097309 L197.177387,22.5183506 L197.197837,27.0749512 L193.831241,27.0884195 L193.840928,29.0758042 L197.206447,29.0623359 L197.230663,34.407641 L193.935102,35.7399268 L194.699797,37.5721565 L197.24035,36.5458708 L197.264028,41.8297605 L193.793572,41.8443063 L193.802182,43.7196346 L197.272638,43.7056275 L197.272638,43.706705 L199.248683,43.6975465 L199.24653,43.2924196 L199.240611,41.8222182 Z M98.9035907,34.641451 C98.6651953,34.4027924 98.2788118,34.4027924 98.0409545,34.641451 L94.6221599,38.0634807 C94.3837645,38.3021392 94.3837645,38.6889492 94.6221599,38.9276078 L98.0409545,42.3501762 C98.2788118,42.588296 98.6651953,42.588296 98.9035907,42.3501762 L102.322385,38.9276078 C102.560781,38.6889492 102.560781,38.3021392 102.322385,38.0634807 L98.9035907,34.641451 Z M209.476007,38.0904173 C211.306217,36.2501066 213.021802,34.3516128 213.93018,32.8269995 L213.929642,32.8264608 L213.929642,30.8396148 L209.33932,30.8396148 L209.359769,27.2144829 L213.929642,27.2144829 L213.929642,25.2270983 L209.371608,25.2270983 L209.387214,22.513502 L207.410631,22.513502 L207.395025,25.2270983 L202.566307,25.2270983 L202.566307,27.2144829 L207.384262,27.2144829 L207.363813,30.8396148 L202.566307,30.8396148 L202.566307,32.8269995 L211.552146,32.8269995 C210.693815,33.9394824 209.446948,35.2895463 208.078461,36.6649308 L205.297899,33.8290422 L203.533342,35.2572224 L206.462969,38.2504209 C203.968697,40.6445487 201.428682,42.8576623 200.31635,43.7190958 L203.579084,43.7120923 C204.594552,42.7337538 206.192824,41.2797145 207.859977,39.6769849 L211.824444,43.7277155 L215,43.7250219 L209.476007,38.0904173 Z M174.045499,25.048239 C175.032984,24.8736896 176.056523,24.6802846 177.238814,24.443781 L176.784087,22.5302027 C173.635438,23.1184987 171.003402,23.5392489 168.260509,23.9750836 L168.646893,25.8983591 C169.933044,25.7108802 171.025465,25.5476442 172.068916,25.3806371 L172.068916,28.0883073 L168.454239,28.0883073 L168.454239,30.0756919 L172.068916,30.0756919 L172.068916,43.7180184 L174.045499,43.7180184 L174.045499,30.0756919 L177.979292,30.0756919 L177.979292,28.0883073 L174.045499,28.0883073 L174.045499,25.048239 Z M187.742203,35.588543 L187.742203,23.2801185 L185.766158,23.2801185 L185.766158,35.8740712 L178.319934,36.9483041 L178.600304,38.915217 L185.766158,37.8819278 L185.766158,43.7180184 L187.742203,43.7180184 L187.742203,37.5969382 L189.191949,37.3873712 L188.910502,35.4204584 L187.742203,35.588543 Z M174.60624,30.3763047 C174.60624,35.1855709 174.907059,38.1911603 175.728259,41.798514 L177.826999,41.798514 C176.992884,37.8905475 176.515555,34.2837325 176.467661,30.3763047 L174.60624,30.3763047 Z M119.964183,29.376417 L119.964183,35.3762823 L121.940766,35.3762823 L121.940766,27.5237155 C122.997133,26.452715 124.051884,25.3450807 124.769223,23.9583829 L123.345308,22.5032661 C122.498278,23.861411 121.622188,24.9690453 120.510394,26.1003838 C119.36954,27.2602752 118.187788,28.3970011 116.824145,29.3225437 L118.278195,30.7124739 C118.87822,30.2734068 119.429274,29.833801 119.964183,29.376417 L119.964183,29.376417 Z M94.610859,27.9482368 L98.0291155,31.3708052 C98.268049,31.608925 98.6544325,31.608925 98.8922898,31.3708052 L102.311084,27.9482368 C102.54948,27.7090395 102.54948,27.3222295 102.311084,27.0846484 L98.8922898,23.6615412 C98.6544325,23.4234214 98.268049,23.4234214 98.0291155,23.6615412 L94.610859,27.0846484 C94.3730017,27.3222295 94.3730017,27.7090395 94.610859,27.9482368 L94.610859,27.9482368 Z M184.01075,34.2207008 L180.205034,28.8409167 L178.595461,29.9932658 L182.400101,35.3730499 L184.01075,34.2207008 Z M92.5514025,29.1453007 L89.132608,32.5678691 C88.8947507,32.8065276 88.8947507,33.1933377 89.132608,33.4314575 L92.5514025,36.8551034 C92.789798,37.0926845 93.1761815,37.0926845 93.4140387,36.8551034 L96.8333715,33.4314575 C97.0712287,33.1933377 97.0712287,32.8065276 96.8333715,32.5678691 L93.4140387,29.1453007 C93.1761815,28.9077196 92.789798,28.9077196 92.5514025,29.1453007 L92.5514025,29.1453007 Z M184.550503,28.2504658 L181.228573,23.5543334 L179.619539,24.7066825 L182.94093,29.4033536 L184.550503,28.2504658 Z M92.5514025,25.8875845 C92.789798,26.1267817 93.1761815,26.1267817 93.4140387,25.8875845 L96.8333715,22.4655548 C97.0712287,22.2268962 97.0712287,21.8400862 96.8333715,21.6008889 L93.4140387,18.179398 C93.1761815,17.9402007 92.789798,17.9402007 92.5514025,18.179398 L89.132608,21.6008889 C88.8947507,21.8400862 88.8947507,22.2268962 89.132608,22.4655548 L92.5514025,25.8875845 Z M85.8790219,32.5678691 L82.4602273,29.1453007 C82.2223701,28.9071809 81.8354484,28.9071809 81.597053,29.1453007 L78.1787966,32.5678691 C77.9404011,32.8065276 77.9404011,33.1933377 78.1787966,33.4314575 L81.597053,36.8545646 C81.8354484,37.0926845 82.2223701,37.0926845 82.4602273,36.8545646 L85.8790219,33.4314575 C86.1174173,33.1933377 86.1174173,32.8065276 85.8790219,32.5678691 L85.8790219,32.5678691 Z M87.0817617,31.3783474 C87.319619,31.6164673 87.7060025,31.6164673 87.9443979,31.3783474 L91.3631925,27.955779 C91.6015879,27.7171205 91.6015879,27.3303104 91.3631925,27.0916519 L87.9443979,23.6696222 C87.7060025,23.4309637 87.319619,23.4309637 87.0817617,23.6696222 L83.6629671,27.0916519 C83.4245717,27.3303104 83.4245717,27.7171205 83.6629671,27.955779 L87.0817617,31.3783474 Z M93.4140387,40.1128196 C93.1761815,39.8736223 92.789798,39.8736223 92.5514025,40.1128196 L89.132608,43.5343105 C88.8947507,43.7735078 88.8947507,44.1597791 89.132608,44.3984377 L92.5514025,47.8210061 C92.789798,48.0596646 93.1761815,48.0596646 93.4140387,47.8210061 L96.8333715,44.3984377 C97.0712287,44.1597791 97.0712287,43.7735078 96.8333715,43.5343105 L93.4140387,40.1128196 Z M91.3556586,38.0521673 L87.9363258,34.6295989 C87.6984686,34.3920178 87.3115469,34.3920178 87.0731515,34.6295989 L83.6543569,38.0521673 C83.4170378,38.2913646 83.4170378,38.6781746 83.6543569,38.9157557 L87.0731515,42.3388628 C87.3115469,42.5775214 87.6984686,42.5775214 87.9363258,42.3388628 L91.3556586,38.9157557 C91.5929777,38.6781746 91.5929777,38.2913646 91.3556586,38.0521673 L91.3556586,38.0521673 Z" id="Fill-1"></path>
        </g>
    </g>
</svg>